<svg width="74" height="11" viewBox="0 0 74 11" fill="none" xmlns="http://www.w3.org/2000/svg">
<path d="M3.22128 6.766L3.44528 8.39H3.45928L3.69728 6.738L5.71328 0.199999H6.27328L8.30328 6.766L8.54128 8.39H8.55528L8.80728 6.738L10.4593 0.199999H11.5933L8.86328 10.154H8.21928L6.23128 3.588L5.97928 2.104H5.90928L5.65728 3.602L3.66928 10.154H3.02528L0.225281 0.199999H1.45728L3.22128 6.766ZM12.897 0.199999H18.231V1.236H14.059V4.442H17.881V5.478H14.059V8.964H18.301V10H12.897V0.199999ZM26.3109 2.44C26.3109 2.67333 26.2736 2.91133 26.1989 3.154C26.1242 3.39667 26.0122 3.62533 25.8629 3.84C25.7136 4.04533 25.5222 4.22733 25.2889 4.386C25.0556 4.54467 24.7802 4.666 24.4629 4.75V4.806C24.7429 4.85267 25.0089 4.932 25.2609 5.044C25.5222 5.156 25.7509 5.31 25.9469 5.506C26.1429 5.702 26.3016 5.94 26.4229 6.22C26.5442 6.5 26.6049 6.83133 26.6049 7.214C26.6049 7.718 26.4976 8.15667 26.2829 8.53C26.0776 8.894 25.8022 9.19267 25.4569 9.426C25.1209 9.65933 24.7336 9.832 24.2949 9.944C23.8562 10.056 23.4082 10.112 22.9509 10.112C22.7922 10.112 22.6056 10.112 22.3909 10.112C22.1762 10.112 21.9522 10.1027 21.7189 10.084C21.4856 10.0747 21.2522 10.056 21.0189 10.028C20.7856 10.0093 20.5802 9.97667 20.4029 9.93V0.284C20.7482 0.228 21.1496 0.181333 21.6069 0.143999C22.0642 0.106666 22.5636 0.0879999 23.1049 0.0879999C23.4689 0.0879999 23.8376 0.120666 24.2109 0.186C24.5936 0.241999 24.9389 0.358666 25.2469 0.535999C25.5549 0.703999 25.8069 0.942 26.0029 1.25C26.2082 1.558 26.3109 1.95467 26.3109 2.44ZM23.0629 9.104C23.3616 9.104 23.6509 9.07133 23.9309 9.006C24.2109 8.93133 24.4582 8.81933 24.6729 8.67C24.8876 8.51133 25.0556 8.32 25.1769 8.096C25.3076 7.872 25.3729 7.606 25.3729 7.298C25.3729 6.91533 25.2936 6.60733 25.1349 6.374C24.9856 6.14067 24.7849 5.95867 24.5329 5.828C24.2902 5.69733 24.0149 5.60867 23.7069 5.562C23.3989 5.51533 23.0909 5.492 22.7829 5.492H21.5649V9.006C21.6302 9.02467 21.7236 9.03867 21.8449 9.048C21.9662 9.05733 22.0969 9.06667 22.2369 9.076C22.3769 9.08533 22.5216 9.09467 22.6709 9.104C22.8202 9.104 22.9509 9.104 23.0629 9.104ZM22.2929 4.512C22.4516 4.512 22.6429 4.50733 22.8669 4.498C23.0909 4.48867 23.2776 4.47467 23.4269 4.456C23.6509 4.38133 23.8609 4.29267 24.0569 4.19C24.2529 4.078 24.4256 3.952 24.5749 3.812C24.7336 3.66267 24.8549 3.49467 24.9389 3.308C25.0322 3.112 25.0789 2.902 25.0789 2.678C25.0789 2.37 25.0182 2.118 24.8969 1.922C24.7849 1.71667 24.6309 1.55333 24.4349 1.432C24.2389 1.31067 24.0149 1.22667 23.7629 1.18C23.5109 1.124 23.2542 1.096 22.9929 1.096C22.6849 1.096 22.4002 1.10533 22.1389 1.124C21.8869 1.13333 21.6956 1.152 21.5649 1.18V4.512H22.2929ZM33.0027 7.508C33.0027 7.116 32.886 6.79867 32.6527 6.556C32.4193 6.304 32.1253 6.08467 31.7707 5.898C31.4253 5.702 31.0473 5.52 30.6367 5.352C30.226 5.184 29.8433 4.98333 29.4887 4.75C29.1433 4.50733 28.854 4.21333 28.6207 3.868C28.3873 3.51333 28.2707 3.06533 28.2707 2.524C28.2707 1.75867 28.5367 1.152 29.0687 0.704C29.6007 0.256 30.3567 0.0319998 31.3367 0.0319998C31.906 0.0319998 32.424 0.0739998 32.8907 0.158C33.3573 0.242 33.7213 0.349333 33.9827 0.48L33.6327 1.502C33.418 1.39933 33.1007 1.30133 32.6807 1.208C32.27 1.11467 31.8033 1.068 31.2807 1.068C30.6647 1.068 30.2027 1.208 29.8947 1.488C29.5867 1.75867 29.4327 2.08067 29.4327 2.454C29.4327 2.818 29.5493 3.12133 29.7827 3.364C30.016 3.60667 30.3053 3.826 30.6507 4.022C31.0053 4.20867 31.388 4.39533 31.7987 4.582C32.2093 4.76867 32.5873 4.988 32.9327 5.24C33.2873 5.48267 33.5813 5.77667 33.8147 6.122C34.048 6.46733 34.1647 6.89667 34.1647 7.41C34.1647 7.83 34.09 8.208 33.9407 8.544C33.7913 8.88 33.572 9.16933 33.2827 9.412C32.9933 9.65467 32.6433 9.84133 32.2327 9.972C31.822 10.1027 31.3553 10.168 30.8327 10.168C30.1327 10.168 29.554 10.112 29.0967 10C28.6393 9.89733 28.2847 9.78067 28.0327 9.65L28.4247 8.6C28.6393 8.72133 28.9567 8.84267 29.3767 8.964C29.7967 9.076 30.268 9.132 30.7907 9.132C31.0987 9.132 31.388 9.104 31.6587 9.048C31.9293 8.98267 32.1627 8.88467 32.3587 8.754C32.5547 8.614 32.7087 8.44133 32.8207 8.236C32.942 8.03067 33.0027 7.788 33.0027 7.508ZM36.2822 0.199999H37.4442V10H36.2822V0.199999ZM46.4184 1.236H43.3664V10H42.2044V1.236H39.1524V0.199999H46.4184V1.236ZM47.856 0.199999H53.19V1.236H49.018V4.442H52.84V5.478H49.018V8.964H53.26V10H47.856V0.199999ZM65.0023 2.44C65.0023 2.67333 64.965 2.91133 64.8903 3.154C64.8156 3.39667 64.7036 3.62533 64.5543 3.84C64.405 4.04533 64.2136 4.22733 63.9803 4.386C63.747 4.54467 63.4716 4.666 63.1543 4.75V4.806C63.4343 4.85267 63.7003 4.932 63.9523 5.044C64.2136 5.156 64.4423 5.31 64.6383 5.506C64.8343 5.702 64.993 5.94 65.1143 6.22C65.2356 6.5 65.2963 6.83133 65.2963 7.214C65.2963 7.718 65.189 8.15667 64.9743 8.53C64.769 8.894 64.4936 9.19267 64.1483 9.426C63.8123 9.65933 63.425 9.832 62.9863 9.944C62.5476 10.056 62.0996 10.112 61.6423 10.112C61.4836 10.112 61.297 10.112 61.0823 10.112C60.8676 10.112 60.6436 10.1027 60.4103 10.084C60.177 10.0747 59.9436 10.056 59.7103 10.028C59.477 10.0093 59.2716 9.97667 59.0943 9.93V0.284C59.4396 0.228 59.841 0.181333 60.2983 0.143999C60.7556 0.106666 61.255 0.0879999 61.7963 0.0879999C62.1603 0.0879999 62.529 0.120666 62.9023 0.186C63.285 0.241999 63.6303 0.358666 63.9383 0.535999C64.2463 0.703999 64.4983 0.942 64.6943 1.25C64.8996 1.558 65.0023 1.95467 65.0023 2.44ZM61.7543 9.104C62.053 9.104 62.3423 9.07133 62.6223 9.006C62.9023 8.93133 63.1496 8.81933 63.3643 8.67C63.579 8.51133 63.747 8.32 63.8683 8.096C63.999 7.872 64.0643 7.606 64.0643 7.298C64.0643 6.91533 63.985 6.60733 63.8263 6.374C63.677 6.14067 63.4763 5.95867 63.2243 5.828C62.9816 5.69733 62.7063 5.60867 62.3983 5.562C62.0903 5.51533 61.7823 5.492 61.4743 5.492H60.2563V9.006C60.3216 9.02467 60.415 9.03867 60.5363 9.048C60.6576 9.05733 60.7883 9.06667 60.9283 9.076C61.0683 9.08533 61.213 9.09467 61.3623 9.104C61.5116 9.104 61.6423 9.104 61.7543 9.104ZM60.9843 4.512C61.143 4.512 61.3343 4.50733 61.5583 4.498C61.7823 4.48867 61.969 4.47467 62.1183 4.456C62.3423 4.38133 62.5523 4.29267 62.7483 4.19C62.9443 4.078 63.117 3.952 63.2663 3.812C63.425 3.66267 63.5463 3.49467 63.6303 3.308C63.7236 3.112 63.7703 2.902 63.7703 2.678C63.7703 2.37 63.7096 2.118 63.5883 1.922C63.4763 1.71667 63.3223 1.55333 63.1263 1.432C62.9303 1.31067 62.7063 1.22667 62.4543 1.18C62.2023 1.124 61.9456 1.096 61.6843 1.096C61.3763 1.096 61.0916 1.10533 60.8303 1.124C60.5783 1.13333 60.387 1.152 60.2563 1.18V4.512H60.9843ZM69.4261 6.108L66.1921 0.199999H67.5501L69.8461 4.484L70.0841 5.338H70.0981L70.3501 4.456L72.5481 0.199999H73.7941L70.5881 6.094V10H69.4261V6.108Z" fill="black"/>
</svg>
